<svg width="30" height="30" viewBox="0 0 30 30" fill="none" xmlns="http://www.w3.org/2000/svg">
<path d="M5.625 27.5312C5.125 27.5312 4.6875 27.3438 4.3125 26.9688C3.9375 26.5938 3.75 26.1562 3.75 25.6562V4.375C3.75 3.875 3.9375 3.4375 4.3125 3.0625C4.6875 2.6875 5.125 2.5 5.625 2.5H21.875C22.375 2.5 22.8125 2.6875 23.1875 3.0625C23.5625 3.4375 23.75 3.875 23.75 4.375V14.0312C23.75 14.3021 23.6615 14.526 23.4844 14.7031C23.3073 14.8802 23.0833 14.9688 22.8125 14.9688C22.5417 14.9688 22.3177 14.8802 22.1406 14.7031C21.9635 14.526 21.875 14.3021 21.875 14.0312V4.375H14.4375V12.2188C14.4375 12.4062 14.3594 12.5469 14.2031 12.6406C14.0469 12.7344 13.8854 12.7292 13.7188 12.625L11.4375 11.2188L9.15625 12.625C8.98958 12.7292 8.82812 12.7344 8.67188 12.6406C8.51562 12.5469 8.4375 12.4062 8.4375 12.2188V4.375H5.625V25.6562H14.9375C15.2083 25.6562 15.4323 25.7448 15.6094 25.9219C15.7865 26.099 15.875 26.3229 15.875 26.5938C15.875 26.8646 15.7865 27.0885 15.6094 27.2656C15.4323 27.4427 15.2083 27.5312 14.9375 27.5312H5.625ZM22.75 28.75C21.0625 28.75 19.6406 28.1719 18.4844 27.0156C17.3281 25.8594 16.75 24.4375 16.75 22.75C16.75 21.0625 17.3281 19.6406 18.4844 18.4844C19.6406 17.3281 21.0625 16.75 22.75 16.75C24.4375 16.75 25.8594 17.3281 27.0156 18.4844C28.1719 19.6406 28.75 21.0625 28.75 22.75C28.75 24.4375 28.1719 25.8594 27.0156 27.0156C25.8594 28.1719 24.4375 28.75 22.75 28.75ZM21.9375 25.1562L25.0625 23.1562C25.2083 23.0521 25.2812 22.9167 25.2812 22.75C25.2812 22.5833 25.2083 22.4479 25.0625 22.3438L21.9375 20.3438C21.7708 20.2396 21.6094 20.2292 21.4531 20.3125C21.2969 20.3958 21.2188 20.5312 21.2188 20.7188V24.7812C21.2188 24.9479 21.2969 25.0781 21.4531 25.1719C21.6094 25.2656 21.7708 25.2604 21.9375 25.1562ZM14.9375 4.375H5.625H8.4375C8.4375 4.375 8.51562 4.375 8.67188 4.375C8.82812 4.375 8.98958 4.375 9.15625 4.375H11.4375H13.7188C13.8854 4.375 14.0469 4.375 14.2031 4.375C14.3594 4.375 14.4375 4.375 14.4375 4.375H21.875C20.8125 4.375 19.9062 4.375 19.1562 4.375C18.4062 4.375 17.5 4.375 16.4375 4.375C16.1458 4.375 15.8958 4.375 15.6875 4.375C15.4792 4.375 15.2292 4.375 14.9375 4.375ZM8.4375 4.375C8.4375 4.375 8.51562 4.375 8.67188 4.375C8.82812 4.375 8.98958 4.375 9.15625 4.375H11.4375H13.7188C13.8854 4.375 14.0469 4.375 14.2031 4.375C14.3594 4.375 14.4375 4.375 14.4375 4.375H8.4375Z" fill="#FF99BC"/>
</svg>
