<svg width="80" height="80" viewBox="0 0 80 80" fill="none" xmlns="http://www.w3.org/2000/svg">
<path d="M59.9761 11.6172H44.5625V25.8763H59.9761V11.6172Z" fill="url(#paint0_linear_34_5)"/>
<path d="M56.1336 35.9453C57.3942 35.9453 58.5416 36.0954 59.576 36.3954C60.6427 36.662 61.5154 37.0121 62.1942 37.4453C63.0345 37.9786 63.681 38.6453 64.1336 39.4453C64.6185 40.2121 64.8609 41.1121 64.8609 42.1453C64.8609 43.3121 64.5053 44.2786 63.7942 45.0453C63.083 45.7786 62.1617 46.1453 61.0306 46.1453C59.8992 46.1453 58.9942 45.8121 58.3154 45.1453C57.6366 44.4786 57.2973 43.5786 57.2973 42.4453C57.2973 41.3786 57.6204 40.4952 58.267 39.7952C58.9133 39.062 59.6568 38.5786 60.4973 38.3453C60.2386 38.0121 59.8507 37.7286 59.3336 37.4952C58.8163 37.262 58.2345 37.1453 57.5882 37.1453C56.586 37.1453 55.6973 37.4453 54.9215 38.0453C54.178 38.6453 53.5477 39.4786 53.0306 40.5453C52.5133 41.6121 52.1094 42.862 51.8185 44.2952C51.5598 45.7286 51.4306 47.2954 51.4306 48.9954C51.4306 51.562 51.7375 53.5786 52.3518 55.0453C52.9981 56.5121 53.8063 57.5453 54.776 58.1453C55.778 58.7453 56.8124 59.0453 57.8791 59.0453C58.4931 59.0453 59.1557 58.9453 59.867 58.7453C60.6102 58.5453 61.3537 58.1453 62.0973 57.5453C62.873 56.9453 63.584 56.0952 64.2306 54.9952L65.0548 55.2954C64.6992 56.5286 64.1174 57.762 63.3094 58.9954C62.5011 60.2286 61.4507 61.2453 60.1579 62.0453C58.8648 62.8121 57.281 63.1954 55.4063 63.1954C53.3053 63.1954 51.3981 62.7286 49.6851 61.7952C48.0042 60.8286 46.6466 59.362 45.6124 57.3952C44.6102 55.3952 44.1094 52.8286 44.1094 49.6952C44.1094 46.6952 44.6265 44.1786 45.6609 42.1453C46.7276 40.0786 48.1659 38.5286 49.976 37.4952C51.786 36.462 53.8386 35.9453 56.1336 35.9453Z" fill="black"/>
<path d="M30.0044 62.5583C28.1137 62.5278 26.3962 62.275 24.8516 61.8001C23.2579 61.3746 21.9569 60.8285 20.9487 60.162C19.7003 59.342 18.7459 58.3266 18.0853 57.1156C17.3756 55.954 17.0324 54.5983 17.0558 53.0485C17.0824 51.2989 17.6375 49.8575 18.7215 48.7248C19.8047 47.6423 21.1947 47.1146 22.8914 47.1418C24.5882 47.1691 25.938 47.691 26.9409 48.7073C27.9438 49.7236 28.4325 51.0815 28.4068 52.7814C28.3826 54.3811 27.8776 55.698 26.8922 56.7322C25.906 57.8165 24.7799 58.5236 23.5142 58.8533C23.8945 59.3596 24.4697 59.7938 25.2402 60.1562C26.0105 60.5186 26.8805 60.7078 27.85 60.7233C29.353 60.7476 30.6929 60.319 31.8701 59.4378C32.9986 58.5561 33.963 57.3213 34.7627 55.734C35.5627 54.1466 36.1971 52.2815 36.666 50.139C37.0864 47.9956 37.3159 45.6488 37.3545 43.099C37.4127 39.2495 36.9979 36.2175 36.1101 34.003C35.1739 31.7878 33.9853 30.2183 32.5445 29.295C31.0553 28.371 29.5108 27.8961 27.9111 27.8703C26.9899 27.8556 25.994 27.9895 24.9227 28.2722C23.8032 28.5543 22.6791 29.1362 21.5505 30.018C20.3734 30.8993 19.2876 32.1571 18.293 33.791L17.0636 33.3213C17.6249 31.4801 18.5255 29.6442 19.7655 27.814C21.0054 25.9838 22.604 24.4844 24.5614 23.3158C26.5181 22.1972 28.9021 21.6605 31.714 21.7058C34.865 21.7565 37.7147 22.5025 40.2628 23.9437C42.762 25.434 44.7647 27.6666 46.2713 30.6413C47.7288 33.6651 48.4219 37.5266 48.3508 42.226C48.2827 46.7255 47.4497 50.4876 45.8524 53.5122C44.2056 56.586 42.0131 58.8761 39.2747 60.3823C36.5365 61.8882 33.4464 62.6135 30.0044 62.5583Z" fill="black"/>
<defs>
<linearGradient id="paint0_linear_34_5" x1="52.2694" y1="11.6172" x2="52.2694" y2="25.8764" gradientUnits="userSpaceOnUse">
<stop offset="0.442708" stop-color="#FF7BA9"/>
<stop offset="1" stop-color="#FFE7F0"/>
</linearGradient>
</defs>
</svg>
