<svg width="60" height="60" viewBox="0 0 60 60" fill="none" xmlns="http://www.w3.org/2000/svg">
<path d="M44.9821 8.71094H33.4219V19.4052H44.9821V8.71094Z" fill="url(#paint0_linear_34_5)"/>
<path d="M42.1041 26.9609C43.0496 26.9609 43.9101 27.0735 44.6859 27.2985C45.4859 27.4985 46.1405 27.761 46.6496 28.0859C47.2798 28.4859 47.7647 28.9859 48.1041 29.5859C48.4678 30.161 48.6496 30.836 48.6496 31.6109C48.6496 32.486 48.3828 33.2109 47.8496 33.7859C47.3161 34.3359 46.6252 34.6109 45.7768 34.6109C44.9283 34.6109 44.2496 34.361 43.7405 33.8609C43.2314 33.3609 42.9768 32.6859 42.9768 31.8359C42.9768 31.0359 43.2192 30.3734 43.7041 29.8484C44.1888 29.2985 44.7465 28.9359 45.3768 28.7609C45.1828 28.511 44.8919 28.2984 44.5041 28.1234C44.1161 27.9485 43.6798 27.8609 43.195 27.8609C42.4434 27.8609 41.7768 28.0859 41.195 28.5359C40.6374 28.9859 40.1647 29.6109 39.7768 30.4109C39.3888 31.211 39.0859 32.1485 38.8678 33.2234C38.6738 34.2984 38.5768 35.4735 38.5768 36.7485C38.5768 38.6735 38.807 40.1859 39.2678 41.2859C39.7525 42.386 40.3587 43.1609 41.0859 43.6109C41.8374 44.0609 42.6132 44.2859 43.4132 44.2859C43.8738 44.2859 44.3707 44.2109 44.9041 44.0609C45.4616 43.9109 46.0192 43.6109 46.5768 43.1609C47.1587 42.7109 47.6919 42.0734 48.1768 41.2484L48.795 41.4735C48.5283 42.3984 48.0919 43.3235 47.4859 44.2485C46.8798 45.1734 46.0919 45.9359 45.1223 46.5359C44.1525 47.111 42.9647 47.3985 41.5587 47.3985C39.9828 47.3985 38.5525 47.0484 37.2678 46.3484C36.007 45.6234 34.9888 44.5235 34.2132 43.0484C33.4616 41.5484 33.0859 39.6234 33.0859 37.2734C33.0859 35.0234 33.4738 33.1359 34.2496 31.6109C35.0496 30.0609 36.1283 28.8984 37.4859 28.1234C38.8434 27.3485 40.3828 26.9609 42.1041 26.9609Z" fill="black"/>
<path d="M22.5014 46.9148C21.0834 46.892 19.7952 46.7023 18.6367 46.3462C17.4414 46.027 16.4657 45.6175 15.7095 45.1176C14.7733 44.5026 14.0574 43.741 13.562 42.8328C13.0297 41.9616 12.7724 40.9448 12.7899 39.7825C12.8098 38.4702 13.2262 37.3892 14.0392 36.5397C14.8515 35.7278 15.8941 35.332 17.1666 35.3524C18.4392 35.3729 19.4515 35.7643 20.2037 36.5266C20.9559 37.2888 21.3224 38.3072 21.3032 39.5821C21.285 40.7819 20.9063 41.7696 20.1672 42.5453C19.4275 43.3585 18.583 43.8888 17.6337 44.1361C17.9189 44.5158 18.3504 44.8414 18.9282 45.1133C19.5059 45.385 20.1584 45.527 20.8855 45.5386C22.0128 45.5568 23.0177 45.2353 23.9006 44.5744C24.747 43.9132 25.4703 42.9871 26.0701 41.7966C26.6701 40.606 27.1459 39.2072 27.4975 37.6003C27.8128 35.9928 27.985 34.2327 28.0139 32.3203C28.0575 29.4332 27.7464 27.1592 27.0806 25.4983C26.3784 23.837 25.487 22.6598 24.4064 21.9673C23.2895 21.2743 22.1312 20.9182 20.9314 20.8988C20.2404 20.8878 19.4935 20.9882 18.6901 21.2003C17.8504 21.4118 17.0074 21.8483 16.1609 22.5096C15.2781 23.1706 14.4637 24.1139 13.7178 25.3393L12.7957 24.9871C13.2167 23.6062 13.8922 22.2293 14.8222 20.8566C15.7521 19.484 16.9511 18.3594 18.4191 17.483C19.8866 16.644 21.6746 16.2415 23.7835 16.2754C26.1468 16.3135 28.2841 16.8729 30.1952 17.9539C32.0695 19.0716 33.5715 20.746 34.7015 22.9771C35.7946 25.2449 36.3144 28.141 36.2612 31.6656C36.2101 35.0402 35.5854 37.8618 34.3874 40.1303C33.1523 42.4356 31.5079 44.1532 29.4541 45.2828C27.4004 46.4123 25.0828 46.9562 22.5014 46.9148Z" fill="black"/>
<defs>
<linearGradient id="paint0_linear_34_5" x1="39.2021" y1="8.71094" x2="39.2021" y2="19.4053" gradientUnits="userSpaceOnUse">
<stop offset="0.442708" stop-color="#FF7BA9"/>
<stop offset="1" stop-color="#FFE7F0"/>
</linearGradient>
</defs>
</svg>
