<svg width="80" height="80" viewBox="0 0 80 80" fill="none" xmlns="http://www.w3.org/2000/svg">
<path d="M59.976 12.714C59.976 12.1083 59.5145 11.6172 58.9449 11.6172H45.5936C45.024 11.6172 44.5625 12.1083 44.5625 12.714V17.6775C44.5625 22.2056 48.0128 25.8763 52.2692 25.8763C56.5255 25.8763 59.976 22.2056 59.976 17.6775V12.714Z" fill="url(#paint0_linear_146_16)"/>
<path d="M56.1336 35.9453C57.3942 35.9453 58.5416 36.0953 59.5759 36.3954C60.6426 36.6619 61.5153 37.0121 62.1942 37.4454C63.0344 37.9786 63.6808 38.6454 64.1336 39.4454C64.6184 40.2121 64.8607 41.112 64.8607 42.1452C64.8607 43.3121 64.5053 44.2784 63.7942 45.0454C63.0829 45.7785 62.1617 46.1452 61.0305 46.1452C59.8991 46.1452 58.9942 45.8121 58.3153 45.1453C57.6365 44.4786 57.2973 43.5786 57.2973 42.4453C57.2973 41.3785 57.6202 40.4953 58.2669 39.7953C58.9133 39.0619 59.6566 38.5785 60.4973 38.3453C60.2385 38.0119 59.8506 37.7287 59.3336 37.4952C58.8161 37.262 58.2344 37.1453 57.588 37.1453C56.5859 37.1453 55.6973 37.4454 54.9215 38.0453C54.1779 38.6454 53.5475 39.4784 53.0305 40.5452C52.5133 41.6119 52.1094 42.862 51.8184 44.2952C51.5597 45.7287 51.4305 47.2953 51.4305 48.9953C51.4305 51.5621 51.7375 53.5786 52.3517 55.0454C52.9981 56.5121 53.8063 57.5453 54.7759 58.1452C55.7779 58.7453 56.8122 59.0454 57.879 59.0454C58.4931 59.0454 59.1555 58.9452 59.8669 58.7453C60.6102 58.5452 61.3537 58.1452 62.0973 57.5453C62.8728 56.9452 63.5839 56.0953 64.2305 54.9953L65.0547 55.2953C64.6991 56.5287 64.1174 57.762 63.3094 58.9953C62.5011 60.2286 61.4506 61.2453 60.1578 62.0453C58.8646 62.8119 57.2808 63.1954 55.4063 63.1954C53.3053 63.1954 51.3981 62.7285 49.6851 61.7953C48.004 60.8287 46.6465 59.362 45.6122 57.3953C44.6102 55.3953 44.1094 52.8287 44.1094 49.6953C44.1094 46.6952 44.6264 44.1785 45.6607 42.1452C46.7274 40.0786 48.1658 38.5287 49.9759 37.4952C51.7859 36.462 53.8385 35.9453 56.1336 35.9453Z" fill="black"/>
<path d="M30.0044 62.5583C28.1138 62.5279 26.3961 62.2751 24.8517 61.8002C23.2578 61.3746 21.9569 60.8285 20.9487 60.162C19.7003 59.342 18.7459 58.3266 18.0852 57.1157C17.3756 55.9541 17.0324 54.5982 17.0558 53.0485C17.0823 51.299 17.6375 49.8575 18.7215 48.7249C19.8047 47.6423 21.1947 47.1147 22.8914 47.1417C24.5881 47.1692 25.9381 47.691 26.9408 48.7074C27.9438 49.7236 28.4325 51.0816 28.4069 52.7813C28.3826 54.3811 27.8777 55.698 26.8921 56.7322C25.9061 57.8165 24.7799 58.5236 23.5143 58.8533C23.8944 59.3595 24.4697 59.7938 25.2402 60.1561C26.0105 60.5187 26.8805 60.7079 27.8501 60.7232C29.3529 60.7475 30.6928 60.3191 31.8702 59.4378C32.9986 58.5561 33.963 57.3214 34.7628 55.734C35.5628 54.1467 36.197 52.2816 36.6661 50.1391C37.0864 47.9957 37.3159 45.6489 37.3545 43.0991C37.4126 39.2494 36.998 36.2174 36.1102 34.003C35.174 31.7878 33.9852 30.2184 32.5445 29.2951C31.0553 28.3711 29.5109 27.8962 27.9111 27.8704C26.99 27.8556 25.9941 27.9896 24.9228 28.2724C23.8032 28.5544 22.6791 29.1363 21.5505 30.018C20.3734 30.8992 19.2876 32.1571 18.293 33.7909L17.0636 33.3214C17.6249 31.4802 18.5255 29.6443 19.7655 27.814C21.0054 25.9837 22.604 24.4844 24.5614 23.3159C26.5182 22.1972 28.9022 21.6605 31.7141 21.7058C34.8649 21.7565 37.7148 22.5025 40.2629 23.9437C42.7621 25.434 44.7646 27.6667 46.2713 30.6413C47.7287 33.6652 48.422 37.5266 48.3509 42.2259C48.2828 46.7254 47.4498 50.4876 45.8524 53.5123C44.2057 56.5861 42.013 58.8761 39.2748 60.3823C36.5365 61.8882 33.4464 62.6135 30.0044 62.5583Z" fill="black"/>
<defs>
<linearGradient id="paint0_linear_146_16" x1="52.2692" y1="11.6172" x2="52.2692" y2="25.8763" gradientUnits="userSpaceOnUse">
<stop offset="0.442708" stop-color="#FF7BA9"/>
<stop offset="1" stop-color="#FFAECA"/>
</linearGradient>
</defs>
</svg>
