<svg width="30" height="30" viewBox="0 0 30 30" fill="none" xmlns="http://www.w3.org/2000/svg">
<path d="M14.9688 25.9687C14.8021 25.9687 14.6458 25.9531 14.5 25.9219C14.3542 25.8906 14.2083 25.8333 14.0625 25.75L6.875 21.8125C6.58333 21.6458 6.34896 21.4167 6.17188 21.125C5.99479 20.8333 5.90625 20.5104 5.90625 20.1562V13.7812L2.75 12.0625C2.58333 11.9792 2.46354 11.8646 2.39062 11.7188C2.31771 11.5729 2.28125 11.4167 2.28125 11.25C2.28125 11.0833 2.31771 10.9271 2.39062 10.7812C2.46354 10.6354 2.58333 10.5208 2.75 10.4375L14.0625 4.25C14.2083 4.16667 14.3542 4.10417 14.5 4.0625C14.6458 4.02083 14.8021 4 14.9688 4C15.1354 4 15.2917 4.02083 15.4375 4.0625C15.5833 4.10417 15.7292 4.16667 15.875 4.25L28.25 10.9688C28.4167 11.0729 28.5417 11.1979 28.625 11.3438C28.7083 11.4896 28.75 11.6458 28.75 11.8125V20.2188C28.75 20.4896 28.6615 20.7135 28.4844 20.8906C28.3073 21.0677 28.0833 21.1562 27.8125 21.1562C27.5417 21.1562 27.3177 21.0677 27.1406 20.8906C26.9635 20.7135 26.875 20.4896 26.875 20.2188V12.3438L24.0312 13.7812V20.1562C24.0312 20.5104 23.9427 20.8333 23.7656 21.125C23.5885 21.4167 23.3542 21.6458 23.0625 21.8125L15.875 25.75C15.7292 25.8333 15.5833 25.8906 15.4375 25.9219C15.2917 25.9531 15.1354 25.9687 14.9688 25.9687ZM14.9688 16.625L24.8125 11.25L14.9688 5.96875L5.1875 11.25L14.9688 16.625ZM14.9688 24.125L22.1562 20.1562V14.9062L15.875 18.2812C15.7292 18.3646 15.5833 18.4219 15.4375 18.4531C15.2917 18.4844 15.1354 18.5 14.9688 18.5C14.8021 18.5 14.651 18.4844 14.5156 18.4531C14.3802 18.4219 14.2396 18.3646 14.0938 18.2812L7.78125 14.8438V20.1562L14.9688 24.125Z" fill="#FF99BC"/>
</svg>
