<svg width="80" height="80" viewBox="0 0 80 80" fill="none" xmlns="http://www.w3.org/2000/svg">
<path d="M40 52.5C46.9036 52.5 52.5 46.9036 52.5 40C52.5 33.0964 46.9036 27.5 40 27.5C33.0964 27.5 27.5 33.0964 27.5 40C27.5 46.9036 33.0964 52.5 40 52.5Z" stroke="url(#paint0_linear_143_36)" stroke-width="6" stroke-linecap="round" stroke-linejoin="round"/>
<path d="M53.75 11.25H26.25C17.9657 11.25 11.25 17.9657 11.25 26.25V53.75C11.25 62.0343 17.9657 68.75 26.25 68.75H53.75C62.0343 68.75 68.75 62.0343 68.75 53.75V26.25C68.75 17.9657 62.0343 11.25 53.75 11.25Z" stroke="url(#paint1_linear_143_36)" stroke-width="6" stroke-linecap="round" stroke-linejoin="round"/>
<path d="M56.25 26.25C57.6307 26.25 58.75 25.1307 58.75 23.75C58.75 22.3693 57.6307 21.25 56.25 21.25C54.8693 21.25 53.75 22.3693 53.75 23.75C53.75 25.1307 54.8693 26.25 56.25 26.25Z" fill="url(#paint2_linear_143_36)"/>
<defs>
<linearGradient id="paint0_linear_143_36" x1="40" y1="27.5" x2="40" y2="52.5" gradientUnits="userSpaceOnUse">
<stop offset="0.442708" stop-color="#FF7BA9"/>
<stop offset="1" stop-color="#FFE7F0"/>
</linearGradient>
<linearGradient id="paint1_linear_143_36" x1="40" y1="11.25" x2="40" y2="68.75" gradientUnits="userSpaceOnUse">
<stop offset="0.442708" stop-color="#FF7BA9"/>
<stop offset="1" stop-color="#FFE7F0"/>
</linearGradient>
<linearGradient id="paint2_linear_143_36" x1="56.25" y1="21.25" x2="56.25" y2="26.25" gradientUnits="userSpaceOnUse">
<stop offset="0.442708" stop-color="#FF7BA9"/>
<stop offset="1" stop-color="#FFE7F0"/>
</linearGradient>
</defs>
</svg>
