<svg width="18" height="26" viewBox="0 0 18 26" fill="none" xmlns="http://www.w3.org/2000/svg">
<path d="M9 18.6875C11.1667 16.9375 12.8021 15.2552 13.9063 13.6406C15.0104 12.026 15.5625 10.5208 15.5625 9.125C15.5625 7.89583 15.3385 6.85417 14.8906 6C14.4427 5.14583 13.8906 4.44792 13.2344 3.90625C12.5781 3.36458 11.8646 2.97396 11.0938 2.73437C10.3229 2.49479 9.625 2.375 9 2.375C8.375 2.375 7.67708 2.49479 6.90625 2.73437C6.13542 2.97396 5.42188 3.36458 4.76563 3.90625C4.10938 4.44792 3.55729 5.14583 3.10937 6C2.66146 6.85417 2.4375 7.89583 2.4375 9.125C2.4375 10.5208 2.98958 12.026 4.09375 13.6406C5.19792 15.2552 6.83333 16.9375 9 18.6875ZM9 20.7187C8.85417 20.7187 8.71875 20.7031 8.59375 20.6719C8.46875 20.6406 8.35417 20.5833 8.25 20.5C5.64583 18.4792 3.71354 16.5365 2.45312 14.6719C1.19271 12.8073 0.5625 10.9583 0.5625 9.125C0.5625 7.70833 0.817709 6.46354 1.32813 5.39062C1.83854 4.31771 2.5 3.41667 3.3125 2.6875C4.125 1.95833 5.03125 1.41146 6.03125 1.04688C7.03125 0.682292 8.02083 0.5 9 0.5C9.97917 0.5 10.9687 0.682292 11.9688 1.04688C12.9688 1.41146 13.875 1.95833 14.6875 2.6875C15.5 3.41667 16.1615 4.31771 16.6719 5.39062C17.1823 6.46354 17.4375 7.70833 17.4375 9.125C17.4375 10.9583 16.8073 12.8073 15.5469 14.6719C14.2865 16.5365 12.3542 18.4792 9.75 20.5C9.64583 20.5833 9.53125 20.6406 9.40625 20.6719C9.28125 20.7031 9.14583 20.7187 9 20.7187ZM9 11.125C9.60417 11.125 10.1198 10.9115 10.5469 10.4844C10.974 10.0573 11.1875 9.54167 11.1875 8.9375C11.1875 8.33333 10.974 7.81771 10.5469 7.39062C10.1198 6.96354 9.60417 6.75 9 6.75C8.39583 6.75 7.88021 6.96354 7.45312 7.39062C7.02604 7.81771 6.8125 8.33333 6.8125 8.9375C6.8125 9.54167 7.02604 10.0573 7.45312 10.4844C7.88021 10.9115 8.39583 11.125 9 11.125ZM1.5 25.5C1.22917 25.5 1.00521 25.4115 0.828125 25.2344C0.651042 25.0573 0.5625 24.8333 0.5625 24.5625C0.5625 24.2917 0.651042 24.0677 0.828125 23.8906C1.00521 23.7135 1.22917 23.625 1.5 23.625H16.5C16.7708 23.625 16.9948 23.7135 17.1719 23.8906C17.349 24.0677 17.4375 24.2917 17.4375 24.5625C17.4375 24.8333 17.349 25.0573 17.1719 25.2344C16.9948 25.4115 16.7708 25.5 16.5 25.5H1.5Z" fill="#FF99BC"/>
</svg>
