<svg width="40" height="40" viewBox="0 0 40 40" fill="none" xmlns="http://www.w3.org/2000/svg">
<path d="M0.562547 19.821C0.561234 23.2607 1.45968 26.6186 3.16817 29.5783L0.398438 39.6909L10.7483 36.9772C13.5998 38.5321 16.8103 39.3518 20.0776 39.3531H20.0859C30.8453 39.3531 39.6044 30.5967 39.6092 19.8363C39.611 14.6212 37.5817 9.71756 33.896 6.02839C30.2095 2.33964 25.3081 0.306876 20.0859 0.304688C9.32424 0.304688 0.566485 9.05938 0.562109 19.8206L0.562547 19.821ZM6.72518 29.0685L6.33876 28.4549C4.7143 25.8721 3.85699 22.887 3.85786 19.8223C3.8618 10.8781 11.1408 3.60088 20.0916 3.60088C24.4262 3.60263 28.4997 5.2923 31.5639 8.3583C34.6277 11.4243 36.3139 15.5003 36.3126 19.8346C36.3086 28.7792 29.0292 36.0565 20.0854 36.0565H20.0789C17.1665 36.0547 14.3105 35.2731 11.82 33.7948L11.227 33.4434L5.08496 35.0539L6.72518 29.0685ZM20.0859 39.3531C20.0854 39.3531 20.0854 39.3531 20.0859 39.3531V39.3531Z" fill="url(#paint0_linear_22_11)"/>
<path d="M15.2046 11.6589C14.8392 10.8467 14.4545 10.8301 14.1071 10.8161C13.8226 10.8038 13.497 10.8047 13.1723 10.8047C12.8467 10.8047 12.3185 10.9268 11.8717 11.4148C11.4244 11.9031 10.1641 13.083 10.1641 15.4829C10.1641 17.8833 11.9124 20.2023 12.1557 20.5283C12.3999 20.8534 15.5307 25.936 20.4885 27.8913C24.6092 29.5162 25.4481 29.1933 26.3422 29.1119C27.2367 29.0305 29.2283 27.932 29.6349 26.7929C30.0414 25.6538 30.0414 24.6774 29.9198 24.4739C29.7977 24.2704 29.4725 24.1483 28.9846 23.9046C28.4966 23.6604 26.0984 22.4805 25.6512 22.3177C25.2039 22.1549 24.8788 22.074 24.5532 22.5624C24.228 23.0503 23.2937 24.1488 23.0092 24.4739C22.7248 24.7999 22.4399 24.8406 21.9524 24.5965C21.4644 24.3518 19.8933 23.8372 18.0295 22.1755C16.5792 20.8823 15.6002 19.2859 15.3158 18.7975C15.0313 18.3095 15.2856 18.0456 15.5298 17.8023C15.749 17.584 16.0177 17.233 16.2619 16.9481C16.5052 16.6632 16.5866 16.4597 16.749 16.1345C16.9118 15.8089 16.8304 15.524 16.7083 15.2799C16.5862 15.0357 15.6383 12.6235 15.2046 11.6589Z" fill="url(#paint1_linear_22_11)"/>
<defs>
<linearGradient id="paint0_linear_22_11" x1="20.0038" y1="0.304687" x2="20.0038" y2="39.6909" gradientUnits="userSpaceOnUse">
<stop offset="0.442708" stop-color="#FF7BA9"/>
<stop offset="1" stop-color="#FFE7F0"/>
</linearGradient>
<linearGradient id="paint1_linear_22_11" x1="20.0773" y1="10.8047" x2="20.0773" y2="29.1927" gradientUnits="userSpaceOnUse">
<stop offset="0.442708" stop-color="#FF7BA9"/>
<stop offset="1" stop-color="#FFE7F0"/>
</linearGradient>
</defs>
</svg>
