<svg width="80" height="80" viewBox="0 0 80 80" fill="none" xmlns="http://www.w3.org/2000/svg">
<path d="M14.1883 55.3118C10.4661 49.0318 9.16412 41.6091 10.5268 34.4372C11.8895 27.2653 15.8231 20.8374 21.5892 16.3603C27.3553 11.8831 34.5574 9.66461 41.8433 10.1212C49.1292 10.5778 55.9979 13.6782 61.1599 18.8402C66.3219 24.0022 69.4223 30.8709 69.8789 38.1568C70.3355 45.4427 68.117 52.6448 63.6398 58.4109C59.1627 64.177 52.7348 68.1106 45.5629 69.4733C38.391 70.836 30.9683 69.534 24.6883 65.8118V65.8118L14.3133 68.7493C13.8883 68.8736 13.4376 68.8813 13.0085 68.7715C12.5795 68.6618 12.1878 68.4386 11.8747 68.1254C11.5615 67.8123 11.3383 67.4206 11.2286 66.9916C11.1188 66.5625 11.1265 66.1118 11.2508 65.6868L14.1883 55.3118Z" stroke="url(#paint0_linear_143_25)" stroke-width="6" stroke-linecap="round" stroke-linejoin="round"/>
<path d="M47.5313 57.5001C44.2419 57.5083 40.9832 56.8665 37.9425 55.6115C34.9019 54.3564 32.1392 52.513 29.8132 50.187C27.4872 47.861 25.6437 45.0983 24.3887 42.0576C23.1337 39.017 22.4918 35.7583 22.5001 32.4688C22.5083 30.1536 23.4339 27.936 25.0739 26.3018C26.714 24.6676 28.9348 23.7501 31.2501 23.7501V23.7501C31.6321 23.747 32.0078 23.847 32.3378 24.0395C32.6677 24.2319 32.9397 24.5098 33.1251 24.8438L36.7813 31.2188C36.9988 31.6064 37.1103 32.0443 37.1049 32.4886C37.0994 32.933 36.977 33.368 36.7501 33.7501L33.8126 38.6563C35.3172 42.0035 37.9967 44.6829 41.3438 46.1876L46.2501 43.2501C46.6321 43.0231 47.0672 42.9008 47.5115 42.8953C47.9558 42.8898 48.3938 43.0014 48.7813 43.2188L55.1563 46.8751C55.4903 47.0604 55.7682 47.3324 55.9607 47.6624C56.1532 47.9923 56.2531 48.3681 56.2501 48.7501C56.2419 51.0628 55.3217 53.2789 53.6893 54.9172C52.0568 56.5555 49.844 57.4836 47.5313 57.5001V57.5001Z" stroke="url(#paint1_linear_143_25)" stroke-width="6" stroke-linecap="round" stroke-linejoin="round"/>
<defs>
<linearGradient id="paint0_linear_143_25" x1="39.9688" y1="10.0625" x2="39.9688" y2="70.0001" gradientUnits="userSpaceOnUse">
<stop offset="0.442708" stop-color="#FF7BA9"/>
<stop offset="1" stop-color="#FFE7F0"/>
</linearGradient>
<linearGradient id="paint1_linear_143_25" x1="39.3751" y1="23.75" x2="39.3751" y2="57.5001" gradientUnits="userSpaceOnUse">
<stop offset="0.442708" stop-color="#FF7BA9"/>
<stop offset="1" stop-color="#FFE7F0"/>
</linearGradient>
</defs>
</svg>
